<svg width="31" height="28" viewBox="0 0 31 28" fill="none" xmlns="http://www.w3.org/2000/svg">
<g clip-path="url(#clip0_1800_7488)">
<path d="M19.2504 4.70323C18.0992 4.70323 16.948 4.70323 15.8035 4.70323C15.5454 4.70323 15.4727 4.65002 15.4727 4.38392C15.4727 3.3129 15.4727 2.24853 15.4727 1.1775C15.4727 0.938021 15.5256 0.864851 15.7704 0.871503C16.8488 0.871503 17.9272 0.871503 18.999 0.871503C19.1512 0.871503 19.2835 0.871498 19.2835 1.08437C19.2835 2.26848 19.2835 3.44594 19.2835 4.63005C19.2761 4.66537 19.2627 4.69914 19.2438 4.72985L19.2504 4.70323Z" fill="white"/>
<path d="M23.0559 8.49334C21.8716 8.49334 20.6807 8.49334 19.4964 8.49334C19.2781 8.49334 19.2715 8.39356 19.2715 8.22726C19.2715 7.16954 19.2715 6.11182 19.2715 5.06076C19.2715 4.93437 19.2715 4.81461 19.2715 4.68822C20.1382 4.61505 21.0049 4.68823 21.8716 4.65497H23.0823C23.1384 4.84704 23.1519 5.04912 23.122 5.24702C23.122 6.19165 23.122 7.13628 23.122 8.0809C23.1446 8.22196 23.1214 8.36657 23.0559 8.49334Z" fill="white"/>
<path d="M23.0511 23.7642C21.7808 23.7642 20.5105 23.8175 19.2402 23.7642C19.3064 22.6334 19.2402 21.5025 19.2402 20.3782C19.2402 20.039 19.3196 19.9458 19.657 19.9525C20.7818 19.9525 21.9065 19.9525 23.0312 19.9525C23.1022 20.2823 23.1333 20.6196 23.1238 20.957C23.1238 21.7819 23.1238 22.6001 23.1238 23.4183C23.1332 23.5383 23.1079 23.6584 23.0511 23.7642Z" fill="white"/>
<path d="M19.2376 23.7529C19.2989 23.9554 19.3147 24.1689 19.2839 24.3782C19.2839 25.3561 19.2839 26.3739 19.2839 27.3186C19.2839 27.5447 19.2442 27.6179 18.9994 27.6179C17.9144 27.6179 16.8294 27.6179 15.7377 27.6179C15.5326 27.6179 15.4665 27.5647 15.4731 27.3518C15.4731 26.2542 15.4731 25.1632 15.4731 24.0656C15.4731 23.8394 15.526 23.7795 15.7576 23.7795C16.9154 23.7795 18.0732 23.7795 19.2376 23.7795V23.7529Z" fill="white"/>
<path d="M23.0522 8.49494V4.70312C23.1713 4.80291 23.1052 4.93596 23.1052 5.04905C23.1052 6.06685 23.1052 7.0913 23.1052 8.1091C23.1052 8.40181 23.1515 8.50825 23.4757 8.5016C24.5144 8.5016 25.5531 8.5016 26.5852 8.5016C26.8432 8.5016 26.9226 8.56812 26.916 8.83421C26.916 9.88528 26.916 10.943 26.916 12.0007C26.916 12.2535 26.9689 12.3333 27.2402 12.3267C28.2723 12.3267 29.311 12.3267 30.3497 12.3267C30.621 12.3267 30.7335 12.3666 30.7268 12.6792C30.7268 13.737 30.7268 14.7947 30.7268 15.8457C30.7268 15.9588 30.7996 16.0985 30.6541 16.1784C30.616 16.1476 30.5883 16.1058 30.5747 16.0586C30.5351 15.7878 30.5218 15.5138 30.535 15.2404C30.5715 14.3528 30.5472 13.4637 30.4622 12.5795C29.5855 12.4569 28.6982 12.4302 27.8158 12.4996C18.9635 12.4996 10.1091 12.4996 1.25242 12.4996C0.49819 12.4996 0.49819 12.4996 0.49819 13.2447V15.5264C0.514746 15.6995 0.494448 15.8741 0.438646 16.0387C0.429361 16.0608 0.413671 16.0796 0.393613 16.0927C0.373555 16.1057 0.350056 16.1124 0.326172 16.1118C0.326172 14.9144 0.326172 13.7237 0.326172 12.5329C0.326172 12.34 0.405564 12.2934 0.570964 12.3067C0.736365 12.32 0.742983 12.3067 0.828992 12.3067C8.12868 12.3067 15.424 12.3067 22.7148 12.3067C23.0589 12.3067 23.1382 12.2136 23.1316 11.881C23.039 10.7567 23.0522 9.65244 23.0522 8.49494Z" fill="white"/>
<path d="M0.287109 16.106H0.353269C0.555392 15.9961 0.788715 15.9585 1.01487 15.9996H29.9335C30.1597 15.9596 30.3927 15.9971 30.5951 16.106C30.5951 16.106 30.5951 16.146 30.5951 16.1659C29.4704 16.1659 28.3523 16.1659 27.2276 16.1659C26.9232 16.1659 26.8703 16.259 26.8703 16.5384C26.8703 17.5762 26.8703 18.6206 26.8703 19.665C26.8703 19.9311 26.7975 19.9976 26.5395 19.991C25.5008 19.991 24.4687 19.991 23.43 19.991C23.1058 19.991 23.0529 20.0841 23.0595 20.3835C23.0595 21.4013 23.0595 22.4191 23.0595 23.4369C23.0595 23.55 23.1256 23.683 23.0066 23.7828V19.9976C23.0066 18.8268 23.0066 17.656 23.0066 16.4919C23.0066 16.1992 22.9007 16.1792 22.6625 16.1792H0.697303C0.558366 16.1659 0.399582 16.2391 0.287109 16.106Z" fill="white"/>
<path d="M30.6191 16.0884H23.7583H0.357422C0.357422 14.9309 0.357422 13.7801 0.357422 12.6226C0.357422 12.423 0.44343 12.3565 0.628679 12.3698H30.1362C30.6258 12.3698 30.6258 12.3698 30.6258 12.8754C30.6258 13.9464 30.6191 15.0174 30.6191 16.0884Z" fill="white"/>
<path d="M26.8346 10.4427C26.8346 10.9549 26.8346 11.4605 26.8346 11.9727C26.8346 12.2055 26.7817 12.3053 26.5303 12.2986C25.4916 12.2986 24.4529 12.2986 23.4208 12.2986C23.1892 12.2986 23.123 12.2188 23.123 11.9993C23.123 10.9549 23.123 9.91048 23.123 8.86607C23.123 8.61328 23.2157 8.5534 23.4472 8.56005H26.5237C26.7685 8.56005 26.8413 8.63988 26.8346 8.87936C26.828 9.39824 26.8346 9.92378 26.8346 10.4427Z" fill="white"/>
<path d="M26.8346 18.0516C26.8346 18.5638 26.8346 19.0693 26.8346 19.5816C26.8346 19.8078 26.7883 19.9142 26.5303 19.9142C25.4916 19.9142 24.4595 19.9142 23.4208 19.9142C23.1892 19.9142 23.123 19.8344 23.123 19.6082C23.123 18.5704 23.123 17.526 23.123 16.4816C23.123 16.2288 23.2091 16.1689 23.4472 16.1689C24.4727 16.1689 25.4916 16.1689 26.5171 16.1689C26.7619 16.1689 26.8413 16.2488 26.8346 16.4883C26.828 17.0138 26.8346 17.5327 26.8346 18.0516Z" fill="white"/>
</g>
<defs>
<clipPath id="clip0_1800_7488">
<rect width="30.4536" height="26.7622" fill="white" transform="translate(0.263672 0.856445)"/>
</clipPath>
</defs>
</svg>
