<svg width="21" height="20" viewBox="0 0 21 20" fill="none" xmlns="http://www.w3.org/2000/svg">
<g clip-path="url(#clip0_1318_431)">
<path d="M13.1903 3.53982C12.4062 3.53982 11.6221 3.53982 10.8425 3.53982C10.6668 3.53982 10.6172 3.50358 10.6172 3.32234C10.6172 2.59284 10.6172 1.86788 10.6172 1.13839C10.6172 0.975273 10.6532 0.925436 10.82 0.929967C11.5545 0.929967 12.289 0.929967 13.019 0.929967C13.1227 0.929967 13.2128 0.929963 13.2128 1.07496C13.2128 1.88147 13.2128 2.68346 13.2128 3.48998C13.2078 3.51404 13.1986 3.53703 13.1858 3.55795L13.1903 3.53982Z" fill="white"/>
<path d="M15.7807 6.11875C14.9741 6.11875 14.163 6.11875 13.3563 6.11875C13.2076 6.11875 13.2031 6.05079 13.2031 5.93751C13.2031 5.21708 13.2031 4.49665 13.2031 3.78075C13.2031 3.69467 13.2031 3.6131 13.2031 3.52701C13.7934 3.47717 14.3838 3.52702 14.9741 3.50436H15.7988C15.8369 3.63518 15.8462 3.77283 15.8258 3.90762C15.8258 4.55102 15.8258 5.19443 15.8258 5.83783C15.8412 5.9339 15.8254 6.0324 15.7807 6.11875Z" fill="white"/>
<path d="M15.7792 16.5223C14.914 16.5223 14.0488 16.5585 13.1836 16.5223C13.2287 15.752 13.1836 14.9817 13.1836 14.216C13.1836 13.9849 13.2377 13.9215 13.4675 13.926C14.2336 13.926 14.9996 13.926 15.7657 13.926C15.8141 14.1507 15.8352 14.3804 15.8288 14.6102C15.8288 15.172 15.8288 15.7293 15.8288 16.2867C15.8352 16.3684 15.8179 16.4502 15.7792 16.5223Z" fill="white"/>
<path d="M13.1816 16.5117C13.2233 16.6496 13.2341 16.7951 13.2131 16.9376C13.2131 17.6037 13.2131 18.2969 13.2131 18.9403C13.2131 19.0944 13.1861 19.1442 13.0193 19.1442C12.2803 19.1442 11.5413 19.1442 10.7977 19.1442C10.658 19.1442 10.613 19.108 10.6175 18.963C10.6175 18.2154 10.6175 17.4723 10.6175 16.7247C10.6175 16.5706 10.6535 16.5298 10.8113 16.5298C11.5999 16.5298 12.3885 16.5298 13.1816 16.5298V16.5117Z" fill="white"/>
<path d="M15.7799 6.12173V3.53906C15.861 3.60703 15.816 3.69765 15.816 3.77468C15.816 4.46792 15.816 5.16569 15.816 5.85893C15.816 6.0583 15.8475 6.1308 16.0683 6.12627C16.7758 6.12627 17.4833 6.12627 18.1863 6.12627C18.362 6.12627 18.4161 6.17158 18.4116 6.35282C18.4116 7.06872 18.4116 7.78914 18.4116 8.50957C18.4116 8.68175 18.4476 8.73613 18.6324 8.7316C19.3354 8.7316 20.0429 8.7316 20.7503 8.7316C20.9351 8.7316 21.0117 8.75878 21.0072 8.97174C21.0072 9.69217 21.0072 10.4126 21.0072 11.1285C21.0072 11.2055 21.0568 11.3007 20.9576 11.355C20.9317 11.3341 20.9128 11.3056 20.9036 11.2735C20.8766 11.089 20.8675 10.9024 20.8765 10.7162C20.9014 10.1116 20.8849 9.50604 20.827 8.90377C20.2298 8.82031 19.6255 8.80208 19.0244 8.8494C12.995 8.8494 6.96409 8.8494 0.931663 8.8494C0.417946 8.8494 0.417946 8.8494 0.417946 9.35687V10.911C0.429223 11.0289 0.415397 11.1478 0.377389 11.2599C0.371065 11.275 0.360378 11.2878 0.346717 11.2967C0.333055 11.3056 0.317049 11.3101 0.300781 11.3097C0.300781 10.4942 0.300781 9.68311 0.300781 8.87206C0.300781 8.74066 0.354856 8.70894 0.467514 8.718C0.580171 8.72707 0.584679 8.718 0.643261 8.718C5.6152 8.718 10.5841 8.718 15.5501 8.718C15.7844 8.718 15.8385 8.65457 15.834 8.42802C15.7709 7.66228 15.7799 6.91013 15.7799 6.12173Z" fill="white"/>
<path d="M0.273438 11.3062H0.3185C0.45617 11.2313 0.61509 11.2057 0.769129 11.2337H20.4661C20.6202 11.2064 20.7789 11.232 20.9168 11.3062C20.9168 11.3062 20.9168 11.3334 20.9168 11.347C20.1507 11.347 19.3891 11.347 18.6231 11.347C18.4158 11.347 18.3797 11.4104 18.3797 11.6007C18.3797 12.3075 18.3797 13.0189 18.3797 13.7303C18.3797 13.9115 18.3302 13.9568 18.1544 13.9523C17.4469 13.9523 16.7439 13.9523 16.0364 13.9523C15.8156 13.9523 15.7796 14.0157 15.7841 14.2196C15.7841 14.9129 15.7841 15.6061 15.7841 16.2994C15.7841 16.3764 15.8292 16.467 15.748 16.535V13.9568C15.748 13.1594 15.748 12.3619 15.748 11.569C15.748 11.3696 15.6759 11.356 15.5137 11.356H0.552827C0.458195 11.347 0.350044 11.3968 0.273438 11.3062Z" fill="white"/>
<path d="M20.9321 11.2957H16.2591H0.320312C0.320312 10.5073 0.320312 9.72341 0.320312 8.93501C0.320312 8.79908 0.378894 8.75377 0.50507 8.76283H20.6031C20.9366 8.76283 20.9366 8.76284 20.9366 9.10719C20.9366 9.83668 20.9321 10.5662 20.9321 11.2957Z" fill="white"/>
<path d="M18.3562 7.45057C18.3562 7.79946 18.3562 8.14382 18.3562 8.49271C18.3562 8.65129 18.3201 8.71925 18.1489 8.71472C17.4414 8.71472 16.7339 8.71472 16.0309 8.71472C15.8732 8.71472 15.8281 8.66035 15.8281 8.51083C15.8281 7.79946 15.8281 7.0881 15.8281 6.37673C15.8281 6.20455 15.8912 6.16377 16.0489 6.1683H18.1444C18.3111 6.1683 18.3607 6.22267 18.3562 6.38578C18.3516 6.7392 18.3562 7.09716 18.3562 7.45057Z" fill="white"/>
<path d="M18.3562 12.6299C18.3562 12.9788 18.3562 13.3232 18.3562 13.6721C18.3562 13.8261 18.3246 13.8986 18.1489 13.8986C17.4414 13.8986 16.7384 13.8986 16.0309 13.8986C15.8732 13.8986 15.8281 13.8442 15.8281 13.6902C15.8281 12.9833 15.8281 12.272 15.8281 11.5606C15.8281 11.3884 15.8867 11.3477 16.0489 11.3477C16.7474 11.3477 17.4414 11.3477 18.1399 11.3477C18.3066 11.3477 18.3607 11.402 18.3562 11.5651C18.3516 11.9231 18.3562 12.2765 18.3562 12.6299Z" fill="white"/>
</g>
<defs>
<clipPath id="clip0_1318_431">
<rect width="20.7425" height="18.2282" fill="white" transform="translate(0.257812 0.917969)"/>
</clipPath>
</defs>
</svg>
